<svg xmlns="http://www.w3.org/2000/svg" xmlns:xlink="http://www.w3.org/1999/xlink" width="461" height="213" viewBox="0 0 461 213">
  <defs>
    <linearGradient id="linear-gradient" x1="0.5" x2="0.872" y2="1" gradientUnits="objectBoundingBox">
      <stop offset="0" stop-color="#0d9445"/>
      <stop offset="1" stop-color="#074a23"/>
    </linearGradient>
    <linearGradient id="linear-gradient-2" x1="1.795" y1="-0.705" x2="1.833" y2="2.061" gradientUnits="objectBoundingBox">
      <stop offset="0" stop-color="#0d9445"/>
      <stop offset="1" stop-color="#095225"/>
    </linearGradient>
  </defs>
  <g id="Group_8" data-name="Group 8" transform="translate(-1197 -687)">
    <g id="Rectangle_5" data-name="Rectangle 5" transform="translate(1197 687)" fill="#fff" stroke="#074f25" stroke-width="5">
      <rect width="461" height="213" rx="11" stroke="none"/>
      <rect x="2.5" y="2.5" width="456" height="208" rx="8.5" fill="none"/>
    </g>
    <path id="Path_12" data-name="Path 12" d="M145.328,24.489q0,.258-.048.741t-.145,1.063q-.1.58-.242,1.176a7.285,7.285,0,0,1-.354,1.1,3.447,3.447,0,0,1-.467.822.717.717,0,0,1-.548.322,2.353,2.353,0,0,1-1.128-.4q-.677-.4-1.66-.87a16.829,16.829,0,0,0-2.3-.87,10.273,10.273,0,0,0-3-.4,7.956,7.956,0,0,0-2.949.483A5.682,5.682,0,0,0,130.5,28.92a5.074,5.074,0,0,0-1.144,1.772,5.58,5.58,0,0,0-.371,1.982,3.652,3.652,0,0,0,.58,2.046,6.921,6.921,0,0,0,1.547,1.644,18.3,18.3,0,0,0,2.208,1.466q1.241.709,2.514,1.482t2.514,1.692a11.828,11.828,0,0,1,2.208,2.127,9.928,9.928,0,0,1,1.547,2.771,10.291,10.291,0,0,1,.58,3.593,13.006,13.006,0,0,1-1.225,5.624A13.442,13.442,0,0,1,138,59.632a16.5,16.5,0,0,1-5.414,3.013,21.473,21.473,0,0,1-7.042,1.1,20.65,20.65,0,0,1-3.867-.338,21.739,21.739,0,0,1-3.142-.822,14.379,14.379,0,0,1-2.3-1.015,5.924,5.924,0,0,1-1.386-1.015,2.058,2.058,0,0,1-.451-1.45,6.838,6.838,0,0,1,.064-.773q.064-.516.177-1.112t.274-1.225a7.506,7.506,0,0,1,.387-1.144,3.386,3.386,0,0,1,.5-.838.783.783,0,0,1,.6-.322,2.5,2.5,0,0,1,1.305.5q.757.5,1.885,1.1a17.8,17.8,0,0,0,2.675,1.112,11.779,11.779,0,0,0,3.706.516,10.446,10.446,0,0,0,3.335-.483,7.061,7.061,0,0,0,2.4-1.321,5.6,5.6,0,0,0,1.466-1.95,5.869,5.869,0,0,0,.5-2.433,3.788,3.788,0,0,0-.58-2.095,6.914,6.914,0,0,0-1.531-1.66,16.025,16.025,0,0,0-2.159-1.434q-1.208-.677-2.465-1.45t-2.465-1.676A11.471,11.471,0,0,1,122.3,40.3a10.107,10.107,0,0,1-1.531-2.788,10.634,10.634,0,0,1-.58-3.674,12.336,12.336,0,0,1,1.16-5.35,12.48,12.48,0,0,1,3.223-4.206,15.024,15.024,0,0,1,4.931-2.739,19.379,19.379,0,0,1,6.316-.983,18.614,18.614,0,0,1,3.062.242,20.009,20.009,0,0,1,2.643.612,11.523,11.523,0,0,1,2.03.822,5.8,5.8,0,0,1,1.16.757,1.967,1.967,0,0,1,.467.645A2.179,2.179,0,0,1,145.328,24.489Zm36.319-1.837q0,.226-.048.725t-.161,1.112q-.113.612-.29,1.273a8.363,8.363,0,0,1-.419,1.208,3.11,3.11,0,0,1-.58.9,1,1,0,0,1-.725.354H168.95l-6.7,33.612a1.371,1.371,0,0,1-.354.58,1.873,1.873,0,0,1-.79.419,8.009,8.009,0,0,1-1.354.258,18.355,18.355,0,0,1-2.079.1,17.563,17.563,0,0,1-2.03-.1,5.7,5.7,0,0,1-1.241-.258,1.047,1.047,0,0,1-.58-.419.819.819,0,0,1-.081-.58l6.7-33.612H150.065a.67.67,0,0,1-.661-.354,2.188,2.188,0,0,1-.177-.967q0-.258.048-.757t.161-1.128q.113-.628.29-1.289a7.243,7.243,0,0,1,.435-1.208,3.333,3.333,0,0,1,.58-.886.965.965,0,0,1,.709-.338h29.391a.658.658,0,0,1,.6.354A1.976,1.976,0,0,1,181.647,22.652Zm27.135,37.189a12.04,12.04,0,0,1,.145,1.837,1.247,1.247,0,0,1-.451,1.015,2.737,2.737,0,0,1-1.434.419q-1,.081-2.739.081-1.225,0-2-.048a5.421,5.421,0,0,1-1.192-.177.993.993,0,0,1-.58-.387,1.547,1.547,0,0,1-.193-.709l-1.128-8.379H183.549l-4.318,8.186a3.122,3.122,0,0,1-.516.757,1.845,1.845,0,0,1-.838.467,7.162,7.162,0,0,1-1.466.226q-.918.064-2.3.064a20.98,20.98,0,0,1-2.3-.1,1.539,1.539,0,0,1-1.1-.467,1.144,1.144,0,0,1-.064-1.047,10.736,10.736,0,0,1,.822-1.8l20.238-37a4.86,4.86,0,0,1,.645-.886,2.043,2.043,0,0,1,.918-.516,7.044,7.044,0,0,1,1.611-.226q1.015-.048,2.659-.048,1.9,0,3.013.048a7.725,7.725,0,0,1,1.724.226,1.258,1.258,0,0,1,.806.532,2.615,2.615,0,0,1,.258.967ZM196.117,29.259h-.032l-9.313,17.725H198.5Zm52.69,30.776a3.558,3.558,0,0,1-.5,1.321,3.783,3.783,0,0,1-.87.967,3.323,3.323,0,0,1-1.1.564,4.331,4.331,0,0,1-1.241.177h-3.609a6.671,6.671,0,0,1-1.9-.226,2.809,2.809,0,0,1-1.273-.806,5.435,5.435,0,0,1-.951-1.579,24.455,24.455,0,0,1-.87-2.546l-6.155-18.627q-.709-2.159-1.305-4.351t-1.144-4.351h-.064q-.322,2.546-.741,5.011t-.935,4.947L221.9,61.84a1.174,1.174,0,0,1-.306.58,1.724,1.724,0,0,1-.725.419,6.7,6.7,0,0,1-1.241.258,15.293,15.293,0,0,1-1.885.1,14.494,14.494,0,0,1-1.853-.1,4.607,4.607,0,0,1-1.112-.258.871.871,0,0,1-.5-.419.822.822,0,0,1-.016-.58l7.509-37.512a3.5,3.5,0,0,1,1.321-2.272,3.824,3.824,0,0,1,2.32-.757h4.415a6.029,6.029,0,0,1,1.821.242,3.143,3.143,0,0,1,1.289.773,4.947,4.947,0,0,1,.935,1.37,13.448,13.448,0,0,1,.757,2.063l6.22,18.788q.612,1.8,1.112,3.577t1.047,3.545h.064q.354-2.32.79-4.786t.886-4.786l3.964-19.658a1.139,1.139,0,0,1,.29-.564,1.566,1.566,0,0,1,.693-.387,6.592,6.592,0,0,1,1.208-.226,21.722,21.722,0,0,1,3.738,0,4.9,4.9,0,0,1,1.128.226.913.913,0,0,1,.516.387.824.824,0,0,1,.064.564Zm47.921-23.654a36.863,36.863,0,0,1-.242,4.093,33.09,33.09,0,0,1-.806,4.4,29.36,29.36,0,0,1-1.515,4.447,23.4,23.4,0,0,1-2.369,4.222A22.044,22.044,0,0,1,288.43,57.3a20.418,20.418,0,0,1-4.5,3.013,24.832,24.832,0,0,1-5.736,1.982,35.5,35.5,0,0,1-7.605.709h-10.6a3.68,3.68,0,0,1-.983-.129,1.714,1.714,0,0,1-.773-.435,1.62,1.62,0,0,1-.419-.822,3.15,3.15,0,0,1,.048-1.289l7.283-36.352a3.071,3.071,0,0,1,1.128-2.046,3.428,3.428,0,0,1,2.063-.628h10.055a30.282,30.282,0,0,1,8.3.967,14.892,14.892,0,0,1,5.575,2.868,11.729,11.729,0,0,1,3.352,4.721A17.711,17.711,0,0,1,296.729,36.381Zm-8.895,1a12.5,12.5,0,0,0-.548-3.771,7.419,7.419,0,0,0-1.772-3,8.347,8.347,0,0,0-3.142-1.966,15.2,15.2,0,0,0-5.14-.709h-4.415l-5.7,28.359h4.447a17.071,17.071,0,0,0,5.688-.822,13.559,13.559,0,0,0,4.061-2.256,14.683,14.683,0,0,0,3-3.319,20.141,20.141,0,0,0,2.03-3.98,22.154,22.154,0,0,0,1.144-4.286A26.629,26.629,0,0,0,287.834,37.38Zm44.7,22.462a12.04,12.04,0,0,1,.145,1.837,1.247,1.247,0,0,1-.451,1.015,2.737,2.737,0,0,1-1.434.419q-1,.081-2.739.081-1.225,0-2-.048a5.421,5.421,0,0,1-1.192-.177.993.993,0,0,1-.58-.387,1.547,1.547,0,0,1-.193-.709l-1.128-8.379H307.3l-4.318,8.186a3.122,3.122,0,0,1-.516.757,1.845,1.845,0,0,1-.838.467,7.162,7.162,0,0,1-1.466.226q-.918.064-2.3.064a20.98,20.98,0,0,1-2.3-.1,1.539,1.539,0,0,1-1.1-.467,1.144,1.144,0,0,1-.064-1.047,10.736,10.736,0,0,1,.822-1.8l20.238-37a4.86,4.86,0,0,1,.645-.886,2.043,2.043,0,0,1,.918-.516,7.044,7.044,0,0,1,1.611-.226q1.015-.048,2.659-.048,1.9,0,3.013.048a7.725,7.725,0,0,1,1.724.226,1.258,1.258,0,0,1,.806.532,2.615,2.615,0,0,1,.258.967ZM319.867,29.259h-.032l-9.313,17.725h11.73Zm52.948,1.128a15.226,15.226,0,0,1-.564,4.093,12.985,12.985,0,0,1-1.789,3.835,13.567,13.567,0,0,1-3.174,3.255,15.691,15.691,0,0,1-4.753,2.32,5.3,5.3,0,0,1,2.594,2.433,17.514,17.514,0,0,1,1.724,4.979l1.708,8.476q.129.709.209,1.273a6.913,6.913,0,0,1,.081.951.776.776,0,0,1-.209.548,1.6,1.6,0,0,1-.757.371,8.323,8.323,0,0,1-1.5.209q-.951.064-2.4.064-1.354,0-2.175-.081a4.945,4.945,0,0,1-1.273-.258,1.056,1.056,0,0,1-.6-.467,2.385,2.385,0,0,1-.209-.677l-1.611-9.249a16.124,16.124,0,0,0-.693-2.836,6.735,6.735,0,0,0-1.112-2.046,4.164,4.164,0,0,0-1.66-1.225,6.145,6.145,0,0,0-2.336-.4h-2.643l-3.19,15.92a1.123,1.123,0,0,1-.322.58,1.873,1.873,0,0,1-.79.419,7.236,7.236,0,0,1-1.37.242q-.838.081-2.062.081t-2.014-.081a5.488,5.488,0,0,1-1.241-.242,1.192,1.192,0,0,1-.612-.4.7.7,0,0,1-.064-.6l7.605-37.9a3.042,3.042,0,0,1,1.144-2.046,3.448,3.448,0,0,1,2.046-.628h11.183a23.578,23.578,0,0,1,5.3.548,12.035,12.035,0,0,1,4.044,1.676,7.75,7.75,0,0,1,2.578,2.836A8.508,8.508,0,0,1,372.815,30.387Zm-9.088,1.579a4.512,4.512,0,0,0-.306-1.676,3.311,3.311,0,0,0-.983-1.337,4.72,4.72,0,0,0-1.756-.87,9.6,9.6,0,0,0-2.594-.306h-4.8L350.934,39.6h4.028a10.721,10.721,0,0,0,4.093-.693,7.682,7.682,0,0,0,2.707-1.789,6.8,6.8,0,0,0,1.5-2.433A8.2,8.2,0,0,0,363.728,31.966Zm50.6,4.415a36.863,36.863,0,0,1-.242,4.093,33.09,33.09,0,0,1-.806,4.4,29.36,29.36,0,0,1-1.515,4.447,23.4,23.4,0,0,1-2.369,4.222,22.044,22.044,0,0,1-3.368,3.754,20.418,20.418,0,0,1-4.5,3.013,24.832,24.832,0,0,1-5.736,1.982,35.5,35.5,0,0,1-7.605.709h-10.6a3.68,3.68,0,0,1-.983-.129,1.714,1.714,0,0,1-.773-.435,1.62,1.62,0,0,1-.419-.822,3.15,3.15,0,0,1,.048-1.289l7.283-36.352a3.071,3.071,0,0,1,1.128-2.046,3.428,3.428,0,0,1,2.063-.628h10.055a30.282,30.282,0,0,1,8.3.967,14.892,14.892,0,0,1,5.575,2.868,11.729,11.729,0,0,1,3.352,4.721A17.711,17.711,0,0,1,414.323,36.381Zm-8.895,1a12.5,12.5,0,0,0-.548-3.771,7.419,7.419,0,0,0-1.772-3,8.347,8.347,0,0,0-3.142-1.966,15.2,15.2,0,0,0-5.14-.709h-4.415l-5.7,28.359h4.447a17.071,17.071,0,0,0,5.688-.822,13.559,13.559,0,0,0,4.061-2.256,14.683,14.683,0,0,0,3-3.319,20.141,20.141,0,0,0,2.03-3.98,22.154,22.154,0,0,0,1.144-4.286A26.629,26.629,0,0,0,405.429,37.38ZM66.051,103.523q0,.193-.048.677t-.145,1.08q-.1.6-.258,1.241a6.861,6.861,0,0,1-.4,1.176,3.168,3.168,0,0,1-.58.886,1,1,0,0,1-.725.354H49L46.94,119.121H59.573a.692.692,0,0,1,.645.322,1.76,1.76,0,0,1,.193.9q0,.226-.048.693t-.145,1.063q-.1.6-.258,1.208a6.626,6.626,0,0,1-.4,1.128,2.93,2.93,0,0,1-.564.838.986.986,0,0,1-.709.322h-12.6L43.3,137.361H58.381a.627.627,0,0,1,.58.338,2.014,2.014,0,0,1,.193.983q0,.226-.032.709a9.132,9.132,0,0,1-.145,1.08q-.113.6-.274,1.208a7.168,7.168,0,0,1-.4,1.144,2.878,2.878,0,0,1-.564.854A1.019,1.019,0,0,1,57,144H36.048a2.844,2.844,0,0,1-.935-.145,1.508,1.508,0,0,1-.693-.483,1.872,1.872,0,0,1-.371-.838,3.324,3.324,0,0,1,.032-1.208l7.283-36.352a3.186,3.186,0,0,1,1.16-2.046,3.226,3.226,0,0,1,1.934-.628H65.213Q66.051,102.3,66.051,103.523Zm34.482,37.512a3.558,3.558,0,0,1-.5,1.321,3.783,3.783,0,0,1-.87.967,3.323,3.323,0,0,1-1.1.564,4.331,4.331,0,0,1-1.241.177H93.218a6.671,6.671,0,0,1-1.9-.226,2.809,2.809,0,0,1-1.273-.806,5.435,5.435,0,0,1-.951-1.579,24.455,24.455,0,0,1-.87-2.546l-6.155-18.627q-.709-2.159-1.305-4.351t-1.144-4.351h-.064q-.322,2.546-.741,5.011t-.935,4.947l-4.254,21.3a1.174,1.174,0,0,1-.306.58,1.724,1.724,0,0,1-.725.419,6.7,6.7,0,0,1-1.241.258,15.293,15.293,0,0,1-1.885.1,14.494,14.494,0,0,1-1.853-.1,4.607,4.607,0,0,1-1.112-.258.871.871,0,0,1-.5-.419.822.822,0,0,1-.016-.58L73.5,105.328a3.5,3.5,0,0,1,1.321-2.272,3.824,3.824,0,0,1,2.32-.757h4.415a6.029,6.029,0,0,1,1.821.242,3.143,3.143,0,0,1,1.289.773,4.947,4.947,0,0,1,.935,1.37,13.448,13.448,0,0,1,.757,2.063l6.22,18.788q.612,1.8,1.112,3.577t1.047,3.545H94.8q.354-2.32.79-4.786t.886-4.786l3.964-19.658a1.139,1.139,0,0,1,.29-.564,1.566,1.566,0,0,1,.693-.387,6.592,6.592,0,0,1,1.208-.226,21.722,21.722,0,0,1,3.738,0,4.9,4.9,0,0,1,1.128.226.913.913,0,0,1,.516.387.824.824,0,0,1,.064.564Zm49.274-34.289q0,.322-.048.838T149.6,108.7q-.113.6-.274,1.192a6.664,6.664,0,0,1-.387,1.08,3.221,3.221,0,0,1-.5.79.771.771,0,0,1-.564.306,2.878,2.878,0,0,1-1.354-.548,24.59,24.59,0,0,0-2.256-1.225,19.58,19.58,0,0,0-3.384-1.225,18.057,18.057,0,0,0-4.737-.548,15.325,15.325,0,0,0-5.027.79,15.85,15.85,0,0,0-4.173,2.159,16.27,16.27,0,0,0-3.319,3.223,20.72,20.72,0,0,0-3.883,8.4,21.784,21.784,0,0,0-.483,4.512,12.233,12.233,0,0,0,.709,4.351,8.209,8.209,0,0,0,2.046,3.126,8.766,8.766,0,0,0,3.239,1.9,13.2,13.2,0,0,0,4.254.645,15.287,15.287,0,0,0,3.126-.322,12.179,12.179,0,0,0,2.868-.967l1.934-9.636h-7.863a.721.721,0,0,1-.612-.306,1.679,1.679,0,0,1-.226-.983,7.051,7.051,0,0,1,.064-.838q.064-.516.177-1.08t.274-1.144a5.033,5.033,0,0,1,.4-1.031,3.13,3.13,0,0,1,.532-.741.893.893,0,0,1,.645-.29h14.083a1.656,1.656,0,0,1,1.515.709,2.7,2.7,0,0,1,.193,2l-3.352,16.693a5.269,5.269,0,0,1-.322,1.047,2.945,2.945,0,0,1-.516.79,5.13,5.13,0,0,1-1.644.918,28.17,28.17,0,0,1-3.142,1.047,36.178,36.178,0,0,1-4.141.87,30.478,30.478,0,0,1-4.673.354,27.376,27.376,0,0,1-7.9-1.031,15.005,15.005,0,0,1-5.72-3.078,13.167,13.167,0,0,1-3.5-5.011,18.208,18.208,0,0,1-1.192-6.832,30.9,30.9,0,0,1,.757-6.832,28.19,28.19,0,0,1,2.256-6.365,26.776,26.776,0,0,1,3.706-5.575,23.35,23.35,0,0,1,5.124-4.431,24.951,24.951,0,0,1,6.494-2.917,27.784,27.784,0,0,1,7.831-1.047,25.517,25.517,0,0,1,4.447.371,28.817,28.817,0,0,1,3.754.9,16.362,16.362,0,0,1,2.788,1.144,8.611,8.611,0,0,1,1.5.951,1.7,1.7,0,0,1,.5.757A3.549,3.549,0,0,1,149.808,106.746Zm10.055,36.126a1.123,1.123,0,0,1-.322.58,1.873,1.873,0,0,1-.79.419,7.236,7.236,0,0,1-1.37.242q-.838.081-2.062.081-1.257,0-2.046-.081a5.488,5.488,0,0,1-1.241-.242,1.144,1.144,0,0,1-.612-.419.679.679,0,0,1-.064-.58l7.9-39.445a.911.911,0,0,1,.306-.58,2.019,2.019,0,0,1,.806-.419,7.2,7.2,0,0,1,1.354-.242q.822-.081,2.046-.081t2.014.081a5.788,5.788,0,0,1,1.257.242,1.064,1.064,0,0,1,.612.419.819.819,0,0,1,.081.58Zm43.635-1.837a3.558,3.558,0,0,1-.5,1.321,3.783,3.783,0,0,1-.87.967,3.323,3.323,0,0,1-1.1.564,4.331,4.331,0,0,1-1.241.177h-3.609a6.671,6.671,0,0,1-1.9-.226,2.809,2.809,0,0,1-1.273-.806,5.435,5.435,0,0,1-.951-1.579,24.455,24.455,0,0,1-.87-2.546l-6.155-18.627q-.709-2.159-1.305-4.351t-1.144-4.351h-.064q-.322,2.546-.741,5.011t-.935,4.947l-4.254,21.3a1.174,1.174,0,0,1-.306.58,1.724,1.724,0,0,1-.725.419,6.7,6.7,0,0,1-1.241.258,15.293,15.293,0,0,1-1.885.1,14.494,14.494,0,0,1-1.853-.1,4.607,4.607,0,0,1-1.112-.258.871.871,0,0,1-.5-.419.822.822,0,0,1-.016-.58l7.509-37.512a3.5,3.5,0,0,1,1.321-2.272,3.824,3.824,0,0,1,2.32-.757h4.415a6.029,6.029,0,0,1,1.821.242,3.143,3.143,0,0,1,1.289.773,4.947,4.947,0,0,1,.935,1.37,13.448,13.448,0,0,1,.757,2.063l6.22,18.788q.612,1.8,1.112,3.577t1.047,3.545h.064q.354-2.32.79-4.786t.886-4.786l3.964-19.658a1.139,1.139,0,0,1,.29-.564,1.566,1.566,0,0,1,.693-.387,6.592,6.592,0,0,1,1.208-.226,21.722,21.722,0,0,1,3.738,0,4.9,4.9,0,0,1,1.128.226.913.913,0,0,1,.516.387.824.824,0,0,1,.064.564Zm41.024-37.512q0,.193-.048.677t-.145,1.08q-.1.6-.258,1.241a6.861,6.861,0,0,1-.4,1.176,3.168,3.168,0,0,1-.58.886,1,1,0,0,1-.725.354H227.474l-2.062,10.184h12.633a.692.692,0,0,1,.645.322,1.76,1.76,0,0,1,.193.9q0,.226-.048.693t-.145,1.063q-.1.6-.258,1.208a6.626,6.626,0,0,1-.4,1.128,2.93,2.93,0,0,1-.564.838.986.986,0,0,1-.709.322h-12.6l-2.385,11.763h15.082a.627.627,0,0,1,.58.338,2.014,2.014,0,0,1,.193.983q0,.226-.032.709a9.13,9.13,0,0,1-.145,1.08q-.113.6-.274,1.208a7.168,7.168,0,0,1-.4,1.144,2.878,2.878,0,0,1-.564.854,1.019,1.019,0,0,1-.741.322H214.519a2.844,2.844,0,0,1-.935-.145,1.508,1.508,0,0,1-.693-.483,1.872,1.872,0,0,1-.371-.838,3.324,3.324,0,0,1,.032-1.208l7.283-36.352a3.186,3.186,0,0,1,1.16-2.046,3.226,3.226,0,0,1,1.934-.628h20.754Q244.521,102.3,244.521,103.523Zm32.194,0q0,.193-.048.677t-.145,1.08q-.1.6-.258,1.241a6.861,6.861,0,0,1-.4,1.176,3.168,3.168,0,0,1-.58.886,1,1,0,0,1-.725.354H259.668l-2.062,10.184h12.633a.692.692,0,0,1,.645.322,1.76,1.76,0,0,1,.193.9q0,.226-.048.693t-.145,1.063q-.1.6-.258,1.208a6.626,6.626,0,0,1-.4,1.128,2.93,2.93,0,0,1-.564.838.986.986,0,0,1-.709.322h-12.6l-2.385,11.763h15.082a.627.627,0,0,1,.58.338,2.014,2.014,0,0,1,.193.983q0,.226-.032.709a9.13,9.13,0,0,1-.145,1.08q-.113.6-.274,1.208a7.168,7.168,0,0,1-.4,1.144,2.878,2.878,0,0,1-.564.854,1.019,1.019,0,0,1-.741.322H246.713a2.844,2.844,0,0,1-.935-.145,1.508,1.508,0,0,1-.693-.483,1.872,1.872,0,0,1-.371-.838,3.324,3.324,0,0,1,.032-1.208l7.283-36.352a3.186,3.186,0,0,1,1.16-2.046,3.226,3.226,0,0,1,1.934-.628h20.754Q276.716,102.3,276.716,103.523Zm34.74,7.863a15.226,15.226,0,0,1-.564,4.093,12.985,12.985,0,0,1-1.789,3.835,13.567,13.567,0,0,1-3.174,3.255,15.691,15.691,0,0,1-4.753,2.32,5.3,5.3,0,0,1,2.594,2.433,17.514,17.514,0,0,1,1.724,4.979l1.708,8.476q.129.709.209,1.273a6.913,6.913,0,0,1,.081.951.776.776,0,0,1-.209.548,1.6,1.6,0,0,1-.757.371,8.323,8.323,0,0,1-1.5.209q-.951.064-2.4.064-1.354,0-2.175-.081a4.945,4.945,0,0,1-1.273-.258,1.056,1.056,0,0,1-.6-.467,2.385,2.385,0,0,1-.209-.677l-1.611-9.249a16.124,16.124,0,0,0-.693-2.836,6.735,6.735,0,0,0-1.112-2.046,4.164,4.164,0,0,0-1.66-1.225,6.145,6.145,0,0,0-2.336-.4h-2.643l-3.19,15.92a1.123,1.123,0,0,1-.322.58,1.873,1.873,0,0,1-.79.419,7.236,7.236,0,0,1-1.37.242q-.838.081-2.062.081t-2.014-.081a5.488,5.488,0,0,1-1.241-.242,1.192,1.192,0,0,1-.612-.4.7.7,0,0,1-.064-.6l7.605-37.9a3.042,3.042,0,0,1,1.144-2.046,3.448,3.448,0,0,1,2.046-.628H298.63a23.578,23.578,0,0,1,5.3.548,12.035,12.035,0,0,1,4.044,1.676,7.75,7.75,0,0,1,2.578,2.836A8.508,8.508,0,0,1,311.456,111.387Zm-9.088,1.579a4.512,4.512,0,0,0-.306-1.676,3.311,3.311,0,0,0-.983-1.337,4.72,4.72,0,0,0-1.756-.87,9.6,9.6,0,0,0-2.594-.306h-4.8L289.574,120.6H293.6a10.721,10.721,0,0,0,4.093-.693,7.682,7.682,0,0,0,2.707-1.789,6.8,6.8,0,0,0,1.5-2.433A8.2,8.2,0,0,0,302.368,112.966Zm19.948,29.906a1.123,1.123,0,0,1-.322.58,1.873,1.873,0,0,1-.79.419,7.236,7.236,0,0,1-1.37.242q-.838.081-2.062.081-1.257,0-2.046-.081a5.488,5.488,0,0,1-1.241-.242,1.144,1.144,0,0,1-.612-.419.679.679,0,0,1-.064-.58l7.9-39.445a.911.911,0,0,1,.306-.58,2.019,2.019,0,0,1,.806-.419,7.2,7.2,0,0,1,1.354-.242q.822-.081,2.046-.081t2.014.081a5.788,5.788,0,0,1,1.257.242,1.064,1.064,0,0,1,.612.419.819.819,0,0,1,.081.58Zm43.635-1.837a3.558,3.558,0,0,1-.5,1.321,3.783,3.783,0,0,1-.87.967,3.323,3.323,0,0,1-1.1.564,4.331,4.331,0,0,1-1.241.177h-3.609a6.671,6.671,0,0,1-1.9-.226,2.809,2.809,0,0,1-1.273-.806,5.435,5.435,0,0,1-.951-1.579,24.455,24.455,0,0,1-.87-2.546l-6.155-18.627q-.709-2.159-1.305-4.351t-1.144-4.351h-.064q-.322,2.546-.741,5.011t-.935,4.947l-4.254,21.3a1.174,1.174,0,0,1-.306.58,1.724,1.724,0,0,1-.725.419,6.7,6.7,0,0,1-1.241.258,15.293,15.293,0,0,1-1.885.1,14.494,14.494,0,0,1-1.853-.1,4.607,4.607,0,0,1-1.112-.258.871.871,0,0,1-.5-.419.822.822,0,0,1-.016-.58l7.509-37.512a3.5,3.5,0,0,1,1.321-2.272,3.824,3.824,0,0,1,2.32-.757h4.415a6.029,6.029,0,0,1,1.821.242,3.143,3.143,0,0,1,1.289.773,4.947,4.947,0,0,1,.935,1.37,13.448,13.448,0,0,1,.757,2.063l6.22,18.788q.612,1.8,1.112,3.577t1.047,3.545h.064q.354-2.32.79-4.786t.886-4.786l3.964-19.658a1.139,1.139,0,0,1,.29-.564,1.566,1.566,0,0,1,.693-.387,6.592,6.592,0,0,1,1.208-.226,21.722,21.722,0,0,1,3.738,0,4.9,4.9,0,0,1,1.128.226.913.913,0,0,1,.516.387.824.824,0,0,1,.064.564Zm49.274-34.289q0,.322-.048.838t-.161,1.112q-.113.6-.274,1.192a6.664,6.664,0,0,1-.387,1.08,3.221,3.221,0,0,1-.5.79.771.771,0,0,1-.564.306,2.878,2.878,0,0,1-1.354-.548,24.59,24.59,0,0,0-2.256-1.225,19.58,19.58,0,0,0-3.384-1.225,18.057,18.057,0,0,0-4.737-.548,15.325,15.325,0,0,0-5.027.79,15.85,15.85,0,0,0-4.173,2.159,16.27,16.27,0,0,0-3.319,3.223,20.72,20.72,0,0,0-3.883,8.4,21.784,21.784,0,0,0-.483,4.512,12.233,12.233,0,0,0,.709,4.351,8.209,8.209,0,0,0,2.046,3.126,8.766,8.766,0,0,0,3.239,1.9,13.2,13.2,0,0,0,4.254.645,15.287,15.287,0,0,0,3.126-.322,12.179,12.179,0,0,0,2.868-.967l1.934-9.636h-7.863a.721.721,0,0,1-.612-.306,1.679,1.679,0,0,1-.226-.983,7.051,7.051,0,0,1,.064-.838q.064-.516.177-1.08t.274-1.144a5.033,5.033,0,0,1,.4-1.031,3.13,3.13,0,0,1,.532-.741.893.893,0,0,1,.645-.29h14.083a1.656,1.656,0,0,1,1.515.709,2.7,2.7,0,0,1,.193,2l-3.352,16.693a5.269,5.269,0,0,1-.322,1.047,2.945,2.945,0,0,1-.516.79,5.13,5.13,0,0,1-1.644.918,28.17,28.17,0,0,1-3.142,1.047,36.178,36.178,0,0,1-4.141.87,30.478,30.478,0,0,1-4.673.354,27.376,27.376,0,0,1-7.9-1.031,15.005,15.005,0,0,1-5.72-3.078,13.167,13.167,0,0,1-3.5-5.011,18.208,18.208,0,0,1-1.192-6.832,30.9,30.9,0,0,1,.757-6.832,28.19,28.19,0,0,1,2.256-6.365,26.776,26.776,0,0,1,3.706-5.575,23.35,23.35,0,0,1,5.124-4.431,24.951,24.951,0,0,1,6.494-2.917,27.784,27.784,0,0,1,7.831-1.047,25.517,25.517,0,0,1,4.447.371,28.817,28.817,0,0,1,3.754.9,16.362,16.362,0,0,1,2.788,1.144,8.611,8.611,0,0,1,1.5.951,1.7,1.7,0,0,1,.5.757A3.549,3.549,0,0,1,415.226,106.746Z" transform="translate(1220 715)" fill="url(#linear-gradient)"/>
    <g id="SvgjsG1055" transform="translate(1211 712)">
      <path id="Path_1" data-name="Path 1" d="M101.772,47.651a27.184,27.184,0,1,0,27.185,27.186A27.184,27.184,0,0,0,101.772,47.651Zm0,45.064a17.88,17.88,0,1,1,17.882-17.878A17.878,17.878,0,0,1,101.772,92.715Z" transform="translate(-16.219 -23.211)" fill="url(#linear-gradient-2)"/>
      <path id="Path_2" data-name="Path 2" d="M95.326,66.618a10.3,10.3,0,1,1-10.3,10.3,10.3,10.3,0,0,1,10.3-10.3m0-2.818A13.12,13.12,0,1,0,108.45,76.923,13.139,13.139,0,0,0,95.326,63.8ZM40.78,87a15.4,15.4,0,1,0,15.4,15.4A15.4,15.4,0,0,0,40.78,87Zm0,25.529a10.132,10.132,0,1,1,9.9-10.128,10.132,10.132,0,0,1-9.9,10.128Z" transform="translate(-9.862 -25.297)" fill="url(#linear-gradient-2)"/>
      <path id="Path_3" data-name="Path 3" d="M39.324,92.608A4.925,4.925,0,1,1,34.4,97.533a4.927,4.927,0,0,1,4.925-4.924m0-2.38a7.3,7.3,0,1,0,7.3,7.3A7.309,7.309,0,0,0,39.324,90.227Zm-4.73-64.09A20.492,20.492,0,1,0,55.087,46.628,20.487,20.487,0,0,0,34.594,26.137Zm0,33.965a13.476,13.476,0,1,1,13.48-13.476A13.474,13.474,0,0,1,34.594,60.1Z" transform="translate(-8.406 -20.432)" fill="url(#linear-gradient-2)"/>
      <path id="Path_4" data-name="Path 4" d="M36.237,41.365a6.9,6.9,0,1,1-6.9,6.9,6.9,6.9,0,0,1,6.9-6.9m0-2.506a9.411,9.411,0,1,0,9.412,9.41,9.421,9.421,0,0,0-9.412-9.41Z" transform="translate(-10.05 -22.075)" fill="url(#linear-gradient-2)"/>
      <path id="Path_5" data-name="Path 5" d="M126.081,71.212a33.02,33.02,0,0,0-23.01-31.429l.021-.066L42.95,21.243l-.012.041A26.183,26.183,0,0,0,8.094,51.057H8.072l10.343,49.084c.08.5.188.988.308,1.472l.252,1.2.059-.014a20.447,20.447,0,0,0,23.592,13.95l.02.088,53.977-12.85A33.008,33.008,0,0,0,126.081,71.212Zm-92.332-48.8A23.371,23.371,0,1,1,10.38,45.782,23.4,23.4,0,0,1,33.749,22.411ZM21.483,101.042l-.311-1.462a17.7,17.7,0,1,1,.311,1.462ZM59.04,96.686a20.461,20.461,0,0,0-39.85-6.548L13.276,62.069A26.165,26.165,0,1,0,51.907,26.946L89.389,38.457A32.966,32.966,0,0,0,86.476,103.5l-33.9,8.075A20.4,20.4,0,0,0,59.04,96.686Zm37.325,4.487-.009-.024-.209.051q-1.5.148-3.031.15a30.165,30.165,0,1,1,3.25-.178Z" transform="translate(-7.561 -19.586)" fill="url(#linear-gradient-2)"/>
    </g>
  </g>
</svg>
