<svg xmlns="http://www.w3.org/2000/svg" xmlns:xlink="http://www.w3.org/1999/xlink" width="461" height="213" viewBox="0 0 461 213">
  <defs>
    <linearGradient id="linear-gradient" x1="1.795" y1="-0.705" x2="1.833" y2="2.061" gradientUnits="objectBoundingBox">
      <stop offset="0" stop-color="#0d9445"/>
      <stop offset="1" stop-color="#095225"/>
    </linearGradient>
    <linearGradient id="linear-gradient-6" x1="0.5" x2="0.5" y2="1" gradientUnits="objectBoundingBox">
      <stop offset="0" stop-color="#0d9445"/>
      <stop offset="1" stop-color="#074a23"/>
    </linearGradient>
  </defs>
  <g id="Group_4" data-name="Group 4" transform="translate(-697 -687)">
    <g id="Rectangle_2" data-name="Rectangle 2" transform="translate(697 687)" fill="#fff" stroke="#074f25" stroke-linejoin="round" stroke-width="1">
      <rect width="461" height="213" rx="9" stroke="none"/>
      <rect x="0.5" y="0.5" width="460" height="212" rx="8.5" fill="none"/>
    </g>
    <g id="Group_5" data-name="Group 5" transform="translate(723.66 706.996)">
      <g id="SvgjsG1055">
        <path id="Path_1" data-name="Path 1" d="M122.568,47.651a47.983,47.983,0,1,0,47.984,47.987A47.984,47.984,0,0,0,122.568,47.651Zm0,79.544a31.561,31.561,0,1,1,31.564-31.557A31.558,31.558,0,0,1,122.568,127.2Z" transform="translate(28.445 -4.511)" fill="url(#linear-gradient)"/>
        <path id="Path_2" data-name="Path 2" d="M148.846,68.774a18.181,18.181,0,1,1-18.182,18.189,18.182,18.182,0,0,1,18.182-18.189m0-4.974a23.159,23.159,0,1,0,23.166,23.164A23.193,23.193,0,0,0,148.846,63.8Zm-96.28,40.948a27.185,27.185,0,1,0,27.19,27.18A27.179,27.179,0,0,0,52.566,104.748Zm0,45.063a17.885,17.885,0,1,1,17.479-17.878,17.885,17.885,0,0,1-17.479,17.878Z" transform="translate(2.008 4.163)" fill="url(#linear-gradient)"/>
        <path id="Path_3" data-name="Path 3" d="M58.62,143.468a8.692,8.692,0,1,1-8.694,8.692,8.7,8.7,0,0,1,8.694-8.692m0-4.2a12.894,12.894,0,1,0,12.894,12.894A12.9,12.9,0,0,0,58.62,139.265ZM50.27,26.137A36.171,36.171,0,1,0,86.444,62.306,36.162,36.162,0,0,0,50.27,26.137Zm0,59.953A23.788,23.788,0,1,1,74.064,62.3,23.784,23.784,0,0,1,50.27,86.09Z" transform="translate(-4.045 -16.067)" fill="url(#linear-gradient)"/>
        <path id="Path_4" data-name="Path 4" d="M43.437,43.283A12.184,12.184,0,1,1,31.249,55.47,12.184,12.184,0,0,1,43.437,43.283m0-4.424A16.612,16.612,0,1,0,60.05,55.47,16.629,16.629,0,0,0,43.437,38.859Z" transform="translate(2.788 -9.234)" fill="url(#linear-gradient)"/>
        <path id="Path_5" data-name="Path 5" d="M216.765,110.713a58.285,58.285,0,0,0-40.616-55.476l.037-.116L70.027,22.51l-.021.072A46.217,46.217,0,0,0,8.5,75.137h-.04l18.257,86.641c.142.881.332,1.743.544,2.6l.444,2.118.1-.026a36.092,36.092,0,0,0,41.643,24.623l.035.156,95.276-22.682A58.265,58.265,0,0,0,216.765,110.713ZM53.786,24.572A41.254,41.254,0,1,1,12.538,65.825,41.3,41.3,0,0,1,53.786,24.572Zm-21.65,138.8-.549-2.58a31.243,31.243,0,1,1,.549,2.58Zm66.292-7.689a36.116,36.116,0,0,0-70.341-11.557L17.649,94.574a46.185,46.185,0,1,0,68.189-62L152,52.9a58.19,58.19,0,0,0-5.142,114.814L87.012,181.963A36,36,0,0,0,98.428,155.678Zm65.883,7.92-.016-.042-.37.091q-2.639.261-5.351.265a53.245,53.245,0,1,1,5.737-.314Z" transform="translate(-7.561 -19.586)" fill="url(#linear-gradient)"/>
      </g>
      <path id="Path_7" data-name="Path 7" d="M84.295,33.416q0,.7-.132,2.02t-.4,2.9q-.264,1.581-.659,3.206a19.855,19.855,0,0,1-.966,2.987,9.4,9.4,0,0,1-1.274,2.24,1.953,1.953,0,0,1-1.493.878,6.414,6.414,0,0,1-3.075-1.1q-1.845-1.1-4.524-2.372A45.874,45.874,0,0,0,65.5,41.805a28,28,0,0,0-8.169-1.1,21.686,21.686,0,0,0-8.038,1.318,15.489,15.489,0,0,0-5.4,3.47,13.831,13.831,0,0,0-3.118,4.831,15.21,15.21,0,0,0-1.01,5.4,9.954,9.954,0,0,0,1.581,5.578,18.866,18.866,0,0,0,4.216,4.48,49.892,49.892,0,0,0,6.017,4q3.382,1.933,6.852,4.041t6.852,4.612a32.24,32.24,0,0,1,6.017,5.8,27.062,27.062,0,0,1,4.216,7.555,28.051,28.051,0,0,1,1.581,9.795,35.452,35.452,0,0,1-3.338,15.329,36.64,36.64,0,0,1-9.443,12.3,44.974,44.974,0,0,1-14.758,8.213,58.531,58.531,0,0,1-19.194,2.987,56.287,56.287,0,0,1-10.541-.922,59.258,59.258,0,0,1-8.565-2.24,39.2,39.2,0,0,1-6.281-2.767,16.149,16.149,0,0,1-3.777-2.767,5.61,5.61,0,0,1-1.23-3.953,18.64,18.64,0,0,1,.176-2.108q.176-1.405.483-3.031t.747-3.338a20.46,20.46,0,0,1,1.054-3.118,9.228,9.228,0,0,1,1.362-2.284A2.135,2.135,0,0,1,5.411,113a6.813,6.813,0,0,1,3.558,1.362q2.064,1.362,5.139,2.987a48.521,48.521,0,0,0,7.291,3.031,32.106,32.106,0,0,0,10.1,1.405,28.474,28.474,0,0,0,9.092-1.318,19.248,19.248,0,0,0,6.544-3.6,15.255,15.255,0,0,0,4-5.315,16,16,0,0,0,1.362-6.632,10.326,10.326,0,0,0-1.581-5.71,18.848,18.848,0,0,0-4.173-4.524,43.681,43.681,0,0,0-5.886-3.909q-3.294-1.845-6.72-3.953t-6.72-4.568A31.269,31.269,0,0,1,21.53,76.5a27.549,27.549,0,0,1-4.173-7.6,28.988,28.988,0,0,1-1.581-10.014,33.626,33.626,0,0,1,3.162-14.582,34.018,34.018,0,0,1,8.784-11.464,40.954,40.954,0,0,1,13.44-7.467A52.825,52.825,0,0,1,58.381,22.7a50.74,50.74,0,0,1,8.345.659,54.54,54.54,0,0,1,7.2,1.669,31.409,31.409,0,0,1,5.534,2.24,15.812,15.812,0,0,1,3.162,2.064A5.361,5.361,0,0,1,83.9,31.088,5.938,5.938,0,0,1,84.295,33.416Zm92.236-5.358q0,.527-.132,1.845t-.4,2.943q-.264,1.625-.7,3.382a18.7,18.7,0,0,1-1.1,3.206,8.635,8.635,0,0,1-1.581,2.416,2.718,2.718,0,0,1-1.976.966H130.061l-5.622,27.759h34.435a1.886,1.886,0,0,1,1.757.878,4.8,4.8,0,0,1,.527,2.46q0,.615-.132,1.889t-.4,2.9q-.264,1.625-.7,3.294a18.062,18.062,0,0,1-1.1,3.075,7.988,7.988,0,0,1-1.537,2.284,2.686,2.686,0,0,1-1.933.878H121.013l-6.5,32.063h41.111a1.71,1.71,0,0,1,1.581.922,5.49,5.49,0,0,1,.527,2.679q0,.615-.088,1.933a24.886,24.886,0,0,1-.4,2.943q-.307,1.625-.747,3.294a19.537,19.537,0,0,1-1.1,3.118,7.846,7.846,0,0,1-1.537,2.328,2.777,2.777,0,0,1-2.02.878h-57.1a7.752,7.752,0,0,1-2.547-.4,4.109,4.109,0,0,1-1.889-1.318,5.1,5.1,0,0,1-1.01-2.284,9.062,9.062,0,0,1,.088-3.294l19.853-99.088a8.684,8.684,0,0,1,3.162-5.578,8.794,8.794,0,0,1,5.271-1.713h56.571Q176.531,24.72,176.531,28.058Z" transform="translate(230.908 5.034)" fill="url(#linear-gradient-6)"/>
    </g>
  </g>
</svg>
